<?xml version="1.0" encoding="UTF-8"?>
<svg width="32" height="32" viewBox="0 0 32 32" fill="none" xmlns="http://www.w3.org/2000/svg">
    <path d="M16 2C8.268 2 2 8.268 2 16C2 23.732 8.268 30 16 30C23.732 30 30 23.732 30 16C30 8.268 23.732 2 16 2Z" fill="#10B981"/>
    <path d="M16 8C11.5817 8 8 11.5817 8 16C8 20.4183 11.5817 24 16 24C20.4183 24 24 20.4183 24 16C24 11.5817 20.4183 8 16 8Z" fill="white"/>
    <path d="M16 12C13.7909 12 12 13.7909 12 16C12 18.2091 13.7909 20 16 20C18.2091 20 20 18.2091 20 16C20 13.7909 18.2091 12 16 12Z" fill="#10B981"/>
</svg> 